<svg xmlns="http://www.w3.org/2000/svg" xmlns:xlink="http://www.w3.org/1999/xlink" width="425" zoomAndPan="magnify" viewBox="0 0 318.75 374.999991" height="500" preserveAspectRatio="xMidYMid meet" version="1.0">
<defs>
<clipPath id="8d68d9325c">
<path d="M 3.238281 2 L 315.238281 2 L 315.238281 373 L 3.238281 373 Z M 3.238281 2 " clip-rule="nonzero"/>
</clipPath>
</defs>
<g clip-path="url(#8d68d9325c)">
<path fill="#ffffff" d="M 159.855469 2.507812 L 15.976562 2.507812 C 9.171875 2.507812 3.644531 8.035156 3.644531 14.847656 L 3.644531 360.445312 C 3.644531 367.257812 9.171875 372.785156 15.976562 372.785156 L 303.734375 372.785156 C 310.539062 372.785156 316.066406 367.257812 316.066406 360.445312 L 316.066406 187.648438 C 316.066406 180.832031 310.539062 175.304688 303.734375 175.304688 C 296.925781 175.304688 291.402344 180.832031 291.402344 187.648438 L 291.402344 348.101562 C 291.402344 348.101562 28.308594 348.101562 28.308594 348.101562 C 28.308594 348.101562 28.308594 27.191406 28.308594 27.191406 C 28.308594 27.191406 159.855469 27.191406 159.855469 27.191406 C 166.664062 27.191406 172.1875 21.664062 172.1875 14.847656 C 172.1875 8.035156 166.664062 2.507812 159.855469 2.507812 Z M 309.503906 89.878906 C 314.324219 85.054688 314.324219 77.242188 309.503906 72.414062 L 274.628906 37.511719 C 269.808594 32.683594 262 32.683594 257.191406 37.511719 L 135.105469 159.691406 C 133.761719 161.046875 132.738281 162.703125 132.132812 164.515625 L 114.683594 216.886719 C 113.214844 221.316406 114.363281 226.207031 117.667969 229.511719 C 120.972656 232.820312 125.855469 233.980469 130.28125 232.5 L 182.609375 215.046875 C 184.421875 214.441406 186.074219 213.417969 187.429688 212.0625 Z M 239.753906 89.878906 L 257.191406 107.332031 L 172.050781 192.546875 C 172.050781 192.546875 145.882812 201.273438 145.882812 201.273438 C 145.882812 201.273438 154.601562 175.09375 154.601562 175.09375 Z M 257.191406 72.414062 L 265.910156 63.691406 L 283.347656 81.140625 L 274.628906 89.878906 Z M 257.191406 72.414062 " fill-opacity="1" fill-rule="evenodd"/>
</g>
</svg>