<svg xmlns="http://www.w3.org/2000/svg" xmlns:xlink="http://www.w3.org/1999/xlink" width="425" zoomAndPan="magnify" viewBox="0 0 318.75 374.999991" height="500" preserveAspectRatio="xMidYMid meet" version="1.0"><defs><g/></defs><g fill="#ffffff" fill-opacity="1"><g transform="translate(25.499457, 189.763452)"><g><path d="M 27.820312 -85.992188 L 27.820312 -1.515625 C 27.820312 -0.84375 28.496094 0 29.675781 0 L 51.425781 0 C 52.605469 0 53.449219 -0.84375 53.449219 -1.515625 L 53.449219 -85.992188 Z M 1.855469 -111.789062 L 79.246094 -111.789062 C 80.425781 -111.789062 81.101562 -112.460938 81.101562 -113.304688 L 81.101562 -133.371094 C 81.101562 -134.042969 80.425781 -134.886719 79.246094 -134.886719 L 1.855469 -134.886719 C 0.84375 -134.886719 0 -134.042969 0 -133.371094 L 0 -113.304688 C 0 -112.460938 0.84375 -111.789062 1.855469 -111.789062 Z M 1.855469 -111.789062 "/></g></g></g><g fill="#ffffff" fill-opacity="1"><g transform="translate(90.905507, 237.564144)"><g><path d="M 120.722656 -32.542969 L 146.351562 -32.542969 L 146.351562 -133.371094 C 146.351562 -134.042969 145.679688 -134.886719 144.5 -134.886719 L 122.242188 -134.886719 C 121.566406 -134.886719 120.722656 -134.382812 120.386719 -133.875 L 74.355469 -35.070312 L 25.964844 -133.875 C 25.796875 -134.382812 24.785156 -134.886719 24.28125 -134.886719 L 1.6875 -134.886719 C 0.503906 -134.886719 0 -134.042969 0 -133.371094 L 0 -1.515625 C 0 -0.84375 0.503906 0 1.6875 0 L 23.941406 0 C 24.953125 0 25.796875 -0.84375 25.796875 -1.515625 L 25.796875 -77.222656 L 62.386719 -6.40625 C 62.554688 -5.902344 63.566406 -5.394531 64.070312 -5.394531 L 84.8125 -5.394531 C 85.316406 -5.394531 86.160156 -5.902344 86.328125 -6.40625 L 120.722656 -75.367188 Z M 120.722656 -32.542969 "/></g></g></g><g fill="#ffffff" fill-opacity="1"><g transform="translate(216.22256, 353.801783)"><g><path d="M 78.742188 -79.921875 L 25.796875 -79.921875 L 25.796875 -110.4375 L 64.070312 -110.4375 L 64.070312 -134.886719 L 1.855469 -134.886719 C 0.84375 -134.886719 0 -134.042969 0 -133.371094 L 0 -1.515625 C 0 -0.84375 0.84375 0 1.855469 0 L 25.796875 0 L 25.796875 -55.472656 L 78.742188 -55.472656 C 79.753906 -55.472656 80.59375 -56.316406 80.59375 -56.988281 L 80.59375 -78.402344 C 80.59375 -79.246094 79.753906 -79.921875 78.742188 -79.921875 Z M 78.742188 -79.921875 "/></g></g></g><g fill="#ffffff" fill-opacity="1"><g transform="translate(99.600825, 264.449028)"><g><path d="M 12.828125 -11.90625 L 12.828125 0 L 10.078125 0 L 10.078125 -7.140625 L 8.046875 -2.28125 L 5.65625 -2.28125 L 3.65625 -7.140625 L 3.65625 0 L 0.90625 0 L 0.90625 -11.90625 L 4.5 -11.90625 L 6.90625 -5.90625 L 9.375 -11.90625 Z M 12.828125 -11.90625 "/></g></g></g><g fill="#ffffff" fill-opacity="1"><g transform="translate(123.700374, 264.449028)"><g><path d="M 11.71875 -5.96875 C 11.71875 -3.800781 11.273438 -2.234375 10.390625 -1.265625 C 9.515625 -0.296875 8.085938 0.1875 6.109375 0.1875 C 4.046875 0.1875 2.597656 -0.265625 1.765625 -1.171875 C 0.929688 -2.085938 0.515625 -3.6875 0.515625 -5.96875 C 0.515625 -8.125 0.953125 -9.679688 1.828125 -10.640625 C 2.710938 -11.609375 4.140625 -12.09375 6.109375 -12.09375 C 8.171875 -12.09375 9.617188 -11.632812 10.453125 -10.71875 C 11.296875 -9.8125 11.71875 -8.226562 11.71875 -5.96875 Z M 3.859375 -3.421875 C 4.015625 -3.097656 4.253906 -2.875 4.578125 -2.75 C 4.898438 -2.625 5.410156 -2.5625 6.109375 -2.5625 C 6.804688 -2.5625 7.316406 -2.625 7.640625 -2.75 C 7.960938 -2.875 8.207031 -3.097656 8.375 -3.421875 C 8.5 -3.671875 8.585938 -4 8.640625 -4.40625 C 8.703125 -4.8125 8.734375 -5.332031 8.734375 -5.96875 C 8.734375 -6.601562 8.703125 -7.125 8.640625 -7.53125 C 8.585938 -7.945312 8.5 -8.285156 8.375 -8.546875 C 8.21875 -8.867188 7.976562 -9.097656 7.65625 -9.234375 C 7.332031 -9.367188 6.816406 -9.4375 6.109375 -9.4375 C 5.398438 -9.4375 4.882812 -9.367188 4.5625 -9.234375 C 4.238281 -9.097656 4.003906 -8.867188 3.859375 -8.546875 C 3.722656 -8.285156 3.628906 -7.945312 3.578125 -7.53125 C 3.523438 -7.125 3.5 -6.601562 3.5 -5.96875 C 3.5 -5.332031 3.523438 -4.8125 3.578125 -4.40625 C 3.628906 -4 3.722656 -3.671875 3.859375 -3.421875 Z M 3.859375 -3.421875 "/></g></g></g><g fill="#ffffff" fill-opacity="1"><g transform="translate(146.280804, 264.449028)"><g><path d="M 3.859375 -3.828125 L 3.859375 0 L 0.90625 0 L 0.90625 -11.90625 L 5.265625 -11.90625 C 7.097656 -11.90625 8.398438 -11.59375 9.171875 -10.96875 C 9.941406 -10.351562 10.328125 -9.320312 10.328125 -7.875 C 10.328125 -6.90625 10.117188 -6.113281 9.703125 -5.5 C 9.296875 -4.882812 8.675781 -4.4375 7.84375 -4.15625 L 10.75 0 L 7.21875 0 L 4.75 -3.828125 Z M 7.34375 -7.875 C 7.34375 -8.382812 7.191406 -8.738281 6.890625 -8.9375 C 6.585938 -9.144531 6.046875 -9.25 5.265625 -9.25 L 3.859375 -9.25 L 3.859375 -6.203125 L 5.265625 -6.203125 C 6.046875 -6.203125 6.585938 -6.328125 6.890625 -6.578125 C 7.191406 -6.828125 7.34375 -7.257812 7.34375 -7.875 Z M 7.34375 -7.875 "/></g></g></g><g fill="#ffffff" fill-opacity="1"><g transform="translate(167.588972, 264.449028)"><g><path d="M 3.03125 0 L -0.0625 0 L 4.34375 -11.90625 L 7.40625 -11.90625 L 11.6875 0 L 8.625 0 L 8 -2 L 3.65625 -2 Z M 5.8125 -8.984375 C 5.707031 -8.628906 5.59375 -8.25 5.46875 -7.84375 C 5.351562 -7.445312 5.15625 -6.800781 4.875 -5.90625 L 4.390625 -4.328125 L 7.25 -4.328125 L 6.765625 -5.90625 C 6.597656 -6.382812 6.429688 -6.890625 6.265625 -7.421875 C 6.097656 -7.960938 5.945312 -8.484375 5.8125 -8.984375 Z M 5.8125 -8.984375 "/></g></g></g><g fill="#ffffff" fill-opacity="1"><g transform="translate(189.618723, 264.449028)"><g><path d="M 8.5 -2.75 L 8.5 0 L 0.90625 0 L 0.90625 -11.90625 L 3.859375 -11.90625 L 3.859375 -2.75 Z M 8.5 -2.75 "/></g></g></g><g fill="#ffffff" fill-opacity="1"><g transform="translate(22.658987, 212.524319)"><g><path d="M 9.65625 -11.90625 L 9.65625 -9.25 L 6.421875 -9.25 L 6.421875 0 L 3.46875 0 L 3.46875 -9.25 L 0.234375 -9.25 L 0.234375 -11.90625 Z M 9.65625 -11.90625 "/></g></g></g><g fill="#ffffff" fill-opacity="1"><g transform="translate(33.520947, 212.524319)"><g><path d="M 3.859375 0 L 0.90625 0 L 0.90625 -11.90625 L 3.859375 -11.90625 L 3.859375 -7.359375 L 8.03125 -7.359375 L 8.03125 -11.90625 L 10.96875 -11.90625 L 10.96875 0 L 8.03125 0 L 8.03125 -4.703125 L 3.859375 -4.703125 Z M 3.859375 0 "/></g></g></g><g fill="#ffffff" fill-opacity="1"><g transform="translate(46.37675, 212.524319)"><g><path d="M 9.109375 -2.75 L 9.109375 0 L 0.90625 0 L 0.90625 -11.90625 L 8.9375 -11.90625 L 8.9375 -9.25 L 3.859375 -9.25 L 3.859375 -7.265625 L 8.234375 -7.265625 L 8.234375 -4.796875 L 3.859375 -4.796875 L 3.859375 -2.75 Z M 9.109375 -2.75 "/></g></g></g><g fill="#ffffff" fill-opacity="1"><g transform="translate(250.521569, 212.521218)"><g><path d="M 3.859375 -4.328125 L 3.859375 0 L 0.90625 0 L 0.90625 -11.90625 L 8.9375 -11.90625 L 8.9375 -9.25 L 3.859375 -9.25 L 3.859375 -6.796875 L 8.234375 -6.796875 L 8.234375 -4.328125 Z M 3.859375 -4.328125 "/></g></g></g><g fill="#ffffff" fill-opacity="1"><g transform="translate(260.775873, 212.521218)"><g><path d="M 8.09375 -5.015625 L 8.09375 -11.90625 L 11.03125 -11.90625 L 11.03125 -5.015625 C 11.03125 -3.273438 10.601562 -1.972656 9.75 -1.109375 C 8.90625 -0.242188 7.632812 0.1875 5.9375 0.1875 C 4.15625 0.1875 2.851562 -0.222656 2.03125 -1.046875 C 1.21875 -1.867188 0.8125 -3.191406 0.8125 -5.015625 L 0.8125 -11.90625 L 3.765625 -11.90625 L 3.765625 -5.015625 C 3.765625 -4.046875 3.910156 -3.394531 4.203125 -3.0625 C 4.503906 -2.726562 5.082031 -2.5625 5.9375 -2.5625 C 6.789062 -2.5625 7.363281 -2.726562 7.65625 -3.0625 C 7.945312 -3.394531 8.09375 -4.046875 8.09375 -5.015625 Z M 8.09375 -5.015625 "/></g></g></g><g fill="#ffffff" fill-opacity="1"><g transform="translate(273.593706, 212.521218)"><g><path d="M 11.1875 -11.90625 L 11.1875 0 L 8.375 0 L 3.65625 -6.875 L 3.65625 0 L 0.90625 0 L 0.90625 -11.90625 L 3.703125 -11.90625 L 8.421875 -4.765625 L 8.421875 -11.90625 Z M 11.1875 -11.90625 "/></g></g></g><g fill="#ffffff" fill-opacity="1"><g transform="translate(286.658397, 212.521218)"><g><path d="M 5.0625 0 L 0.90625 0 L 0.90625 -11.90625 L 5.0625 -11.90625 C 6.28125 -11.90625 7.242188 -11.800781 7.953125 -11.59375 C 8.671875 -11.394531 9.25 -11.070312 9.6875 -10.625 C 10.113281 -10.1875 10.425781 -9.585938 10.625 -8.828125 C 10.820312 -8.078125 10.921875 -7.125 10.921875 -5.96875 C 10.921875 -3.894531 10.457031 -2.378906 9.53125 -1.421875 C 8.601562 -0.472656 7.113281 0 5.0625 0 Z M 7.40625 -8.484375 C 7.226562 -8.753906 6.96875 -8.945312 6.625 -9.0625 C 6.28125 -9.1875 5.757812 -9.25 5.0625 -9.25 L 3.859375 -9.25 L 3.859375 -2.75 L 5.0625 -2.75 C 5.75 -2.75 6.265625 -2.804688 6.609375 -2.921875 C 6.953125 -3.035156 7.21875 -3.21875 7.40625 -3.46875 C 7.570312 -3.707031 7.691406 -4.023438 7.765625 -4.421875 C 7.835938 -4.828125 7.875 -5.34375 7.875 -5.96875 C 7.875 -6.59375 7.835938 -7.101562 7.765625 -7.5 C 7.691406 -7.90625 7.570312 -8.234375 7.40625 -8.484375 Z M 7.40625 -8.484375 "/></g></g></g><g fill="#ffffff" fill-opacity="1"><g transform="translate(299.058468, 212.521218)"><g><path d="M 5.421875 -4.4375 L 3.015625 -5.015625 C 2.054688 -5.242188 1.398438 -5.59375 1.046875 -6.0625 C 0.703125 -6.53125 0.53125 -7.195312 0.53125 -8.0625 C 0.53125 -9.445312 0.894531 -10.460938 1.625 -11.109375 C 2.351562 -11.765625 3.484375 -12.09375 5.015625 -12.09375 C 5.648438 -12.09375 6.210938 -12.066406 6.703125 -12.015625 C 7.191406 -11.960938 7.644531 -11.875 8.0625 -11.75 L 8.0625 -9.109375 C 7.101562 -9.273438 6.441406 -9.367188 6.078125 -9.390625 C 5.722656 -9.421875 5.347656 -9.4375 4.953125 -9.4375 C 4.421875 -9.4375 4.035156 -9.347656 3.796875 -9.171875 C 3.554688 -8.992188 3.4375 -8.695312 3.4375 -8.28125 C 3.4375 -8.070312 3.472656 -7.914062 3.546875 -7.8125 C 3.617188 -7.707031 3.765625 -7.628906 3.984375 -7.578125 L 6.265625 -7.046875 C 6.921875 -6.890625 7.394531 -6.738281 7.6875 -6.59375 C 7.976562 -6.445312 8.210938 -6.257812 8.390625 -6.03125 C 8.585938 -5.789062 8.734375 -5.476562 8.828125 -5.09375 C 8.929688 -4.71875 8.984375 -4.257812 8.984375 -3.71875 C 8.984375 -2.34375 8.613281 -1.347656 7.875 -0.734375 C 7.144531 -0.117188 6.007812 0.1875 4.46875 0.1875 C 3.675781 0.1875 2.925781 0.140625 2.21875 0.046875 C 1.507812 -0.046875 0.957031 -0.160156 0.5625 -0.296875 L 0.5625 -3.09375 C 1.070312 -2.925781 1.675781 -2.796875 2.375 -2.703125 C 3.070312 -2.609375 3.769531 -2.5625 4.46875 -2.5625 C 5.019531 -2.5625 5.398438 -2.628906 5.609375 -2.765625 C 5.828125 -2.910156 5.9375 -3.191406 5.9375 -3.609375 C 5.9375 -3.867188 5.898438 -4.054688 5.828125 -4.171875 C 5.765625 -4.296875 5.628906 -4.382812 5.421875 -4.4375 Z M 5.421875 -4.4375 "/></g></g></g></svg>